HIERARCHY
ROOT Hips
{
	OFFSET -3.958830 18.904000 13.208200
	CHANNELS 6 Xposition Yposition Zposition Zrotation Yrotation Xrotation 
	JOINT LHipJoint
	{
		OFFSET 0.000000 0.000000 0.000000
		CHANNELS 3 Zrotation Yrotation Xrotation
		JOINT LeftUpLeg
		{
			OFFSET 1.800000 -1.400000 0.085000
			CHANNELS 3 Zrotation Yrotation Xrotation
			JOINT LeftLeg
			{
				OFFSET 2.215000 -6.000000 0.000000
				CHANNELS 3 Zrotation Yrotation Xrotation
				JOINT LeftFoot
				{
					OFFSET 2.500000 -6.900000 0.000000
					CHANNELS 3 Zrotation Yrotation Xrotation
					JOINT LeftToeBase
					{
						OFFSET 0.200000 -0.500000 1.950000
						CHANNELS 3 Zrotation Yrotation Xrotation
						End Site
						{
							OFFSET 0.000000 0.000000 0.000000
						}
					}
				}
			}
		}
	}
	JOINT RHipJoint
	{
		OFFSET 0.000000 0.000000 0.000000
		CHANNELS 3 Zrotation Yrotation Xrotation
		JOINT RightUpLeg
		{
			OFFSET -1.800000 -1.400000 0.085000
			CHANNELS 3 Zrotation Yrotation Xrotation
			JOINT RightLeg
			{
				OFFSET -2.215000 -6.000000 0.000000
				CHANNELS 3 Zrotation Yrotation Xrotation
				JOINT RightFoot
				{
					OFFSET -2.500000 -6.900000 0.000000
					CHANNELS 3 Zrotation Yrotation Xrotation
					JOINT RightToeBase
					{
						OFFSET -0.200000 -0.500000 1.950000
						CHANNELS 3 Zrotation Yrotation Xrotation
						End Site
						{
							OFFSET 0.000000 0.000000 0.000000
						}
					}
				}
			}
		}
	}
	JOINT LowerBack
	{
		OFFSET 0.000000 0.000000 0.000000
		CHANNELS 3 Zrotation Yrotation Xrotation
		JOINT Spine
		{
			OFFSET -0.087000 1.940000 -0.288900
			CHANNELS 3 Zrotation Yrotation Xrotation
			JOINT Spine1
			{
				OFFSET 0.000000 1.950000 0.060000
				CHANNELS 3 Zrotation Yrotation Xrotation
				JOINT Neck
				{
					OFFSET 0.000000 0.000000 0.000000
					CHANNELS 3 Zrotation Yrotation Xrotation
					JOINT Neck1
					{
						OFFSET 0.000000 1.600000 0.340000
						CHANNELS 3 Zrotation Yrotation Xrotation
						JOINT Head
						{
							OFFSET 0.000000 1.667000 -0.240000
							CHANNELS 3 Zrotation Yrotation Xrotation
							End Site
							{
								OFFSET 0.000000 0.000000 0.000000
							}
						}
					}
				}
				JOINT LeftShoulder
				{
					OFFSET 0.000000 0.000000 0.000000
					CHANNELS 3 Zrotation Yrotation Xrotation
					JOINT LeftArm
					{
						OFFSET 2.700000 1.550000 -0.730000
						CHANNELS 3 Zrotation Yrotation Xrotation
						JOINT LeftForeArm
						{
							OFFSET 5.450000 0.000000 0.000000
							CHANNELS 3 Zrotation Yrotation Xrotation
							JOINT LeftHand
							{
								OFFSET 3.450000 0.000000 0.000000
								CHANNELS 3 Zrotation Yrotation Xrotation
								JOINT LeftHandIndex1
								{
									OFFSET 0.750000 0.000000 0.000000
									CHANNELS 3 Zrotation Yrotation Xrotation
									End Site
									{
										OFFSET 0.000000 0.000000 0.000000
									}
								}
							}
						}
					}
				}
				JOINT RightShoulder
				{
					OFFSET 0.000000 0.000000 0.000000
					CHANNELS 3 Zrotation Yrotation Xrotation
					JOINT RightArm
					{
						OFFSET -2.700000 1.550000 -0.730000
						CHANNELS 3 Zrotation Yrotation Xrotation
						JOINT RightForeArm
						{
							OFFSET -5.450000 0.000000 0.000000
							CHANNELS 3 Zrotation Yrotation Xrotation
							JOINT RightHand
							{
								OFFSET -3.450000 0.000000 0.000000
								CHANNELS 3 Zrotation Yrotation Xrotation
								JOINT RightHandIndex1
								{
									OFFSET -0.750000 0.000000 0.000000
									CHANNELS 3 Zrotation Yrotation Xrotation
									End Site
									{
										OFFSET 0.000000 0.000000 0.000000
									}
								}
							}
						}
					}
				}
			}
		}
	}
}
MOTION
Frames: 4
Frame Time: 0.016667
0.374170 17.484820 -1.031320 -5.029808 14.450523 -6.139764 -14.994063 12.483634 1.868302 4.334258 -0.533362 -8.244774 -6.487678 9.617149 28.924222 -0.121476 6.084458 2.469928 0.483930 0.048820 0.451870 18.663907 -8.944294 5.292434 -6.176560 16.833169 -30.142928 2.142420 -38.969780 113.660726 -4.311603 -19.137051 -0.882923 0.035740 0.051950 0.061100 -4.558584 -1.914845 -8.789098 15.519416 -2.012349 21.068553 -8.826702 0.650105 3.524355 3.044833 -3.712999 -10.343385 -16.187443 8.762752 68.851018 3.119560 -2.655890 0.186460 -23.888232 -1.464278 0.534748 -44.788143 5.126033 -11.181616 -37.899776 -30.636693 5.688669 -3.422450 2.917455 0.770660 -0.111440 0.093080 0.158790 17.487677 3.444292 6.772275 49.649109 -13.591234 -16.515430 54.979229 30.771206 7.927780 2.134334 -1.493517 -0.234150 0.268470 -0.082190 -0.285500 
0.374640 17.491180 -1.020940 -5.482247 13.583119 -6.608153 -14.977172 12.494753 1.853746 5.050304 -0.434171 -7.721263 -7.007284 9.855406 28.687892 -0.110276 6.159836 2.434158 0.482710 0.051200 0.452490 18.684797 -8.907918 5.318613 -5.730320 17.220188 -30.945868 2.248870 -38.590782 113.325176 -4.303830 -19.092981 -0.876522 0.033070 0.041300 0.057280 -4.592372 -1.935952 -8.794141 16.311075 -2.417483 21.760444 -9.278336 0.470843 3.134093 3.116753 -4.025931 -10.561772 -17.331709 9.665574 69.505070 3.260850 -2.651350 -0.098530 -24.274690 -1.578560 0.558221 -44.525171 5.653614 -11.366703 -37.564819 -30.892489 5.646413 -3.408769 2.903337 0.784420 -0.124620 0.104620 0.148710 17.691945 3.677296 6.992045 49.938969 -14.236458 -16.960216 55.207327 31.468875 8.212703 2.133080 -1.473802 -0.231980 0.274090 -0.074470 -0.286630 
0.377350 17.497730 -0.998100 -6.034812 12.139481 -7.399102 -14.962561 12.543397 1.843122 5.840758 -0.257129 -6.629637 -7.408890 10.036244 28.295998 -0.085891 6.211835 2.407294 0.518710 0.092760 0.482550 18.704064 -8.893925 5.330338 -4.898793 17.665047 -32.167756 1.893649 -36.985948 112.560148 -4.259498 -18.843902 -0.834123 0.044840 -0.000400 0.058430 -4.611327 -1.968825 -8.788732 17.156490 -3.086001 22.932068 -9.948937 0.107895 2.588103 3.307834 -4.297244 -10.765960 -18.464355 10.686025 70.372024 3.104650 -2.380230 -0.770730 -25.028442 -1.719018 0.549664 -43.719251 6.628266 -11.677806 -37.410423 -31.280050 5.675726 -3.359061 2.914891 0.804910 -0.155240 0.138620 0.149720 18.044688 3.836131 7.214278 50.283902 -15.230725 -17.564584 55.700637 32.167171 8.511414 2.132144 -1.473760 -0.211090 0.265620 -0.095640 -0.291450 
0.384000 17.503400 -0.971030 -6.818607 10.135385 -8.223644 -14.941093 12.566910 1.821613 6.902091 -0.058750 -5.419158 -7.950327 10.299385 27.852595 -0.068453 6.300197 2.368760 0.549710 0.129830 0.513670 18.740173 -8.850677 5.378476 -3.606569 18.494048 -33.796125 1.840024 -35.023605 111.056900 -4.193000 -18.508900 -0.773470 0.058730 -0.044100 0.055040 -4.652402 -1.961934 -8.782226 18.421964 -3.976004 24.203948 -10.872501 -0.321843 2.072326 3.635474 -4.609752 -11.030200 -19.614705 11.762814 71.150160 2.447890 -1.902760 -1.733290 -25.646725 -1.929843 0.665160 -43.088814 7.970313 -12.172091 -37.098304 -31.933912 5.699188 -3.304361 2.908825 0.835920 -0.186620 0.176720 0.149330 17.985721 4.107216 7.432622 50.811160 -15.754609 -18.055052 56.016522 32.658506 8.741125 2.132167 -1.460496 -0.201350 0.267700 -0.114360 -0.301550 
